<svg width="298" height="162" viewBox="0 0 298 162" fill="none" xmlns="http://www.w3.org/2000/svg">
<rect x="226" width="16" height="162" rx="2" fill="#FDFDFD"/>
<rect x="256" width="36" height="162" rx="4" fill="#FDFDFD"/>
<rect y="41" width="298" height="88" fill="#0E0E0E"/>
<path d="M34.7945 117C28.1449 117 22.1525 115.647 16.8173 112.94C11.5595 110.156 7.42282 106.328 4.4073 101.456C1.4691 96.584 0 91.0547 0 84.868C0 78.6813 1.4691 73.152 4.4073 68.28C7.42282 63.408 11.5595 59.6187 16.8173 56.912C22.1525 54.128 28.1449 52.736 34.7945 52.736C41.3668 52.736 47.0885 54.128 51.9598 56.912C56.9083 59.6187 60.5037 63.524 62.7461 68.628L48.7123 76.168C45.4648 70.4453 40.7869 67.584 34.6785 67.584C29.9619 67.584 26.0572 69.1307 22.9644 72.224C19.8715 75.3173 18.3251 79.532 18.3251 84.868C18.3251 90.204 19.8715 94.4187 22.9644 97.512C26.0572 100.605 29.9619 102.152 34.6785 102.152C40.8642 102.152 45.5421 99.2907 48.7123 93.568L62.7461 101.224C60.5037 106.173 56.9083 110.04 51.9598 112.824C47.0885 115.608 41.3668 117 34.7945 117Z" fill="#FDFDFD"/>
<path d="M102.062 117C95.4897 117 89.5747 115.647 84.3168 112.94C79.1363 110.156 75.077 106.328 72.1387 101.456C69.2005 96.584 67.7315 91.0547 67.7315 84.868C67.7315 78.6813 69.2005 73.152 72.1387 68.28C75.077 63.408 79.1363 59.6187 84.3168 56.912C89.5747 54.128 95.4897 52.736 102.062 52.736C108.634 52.736 114.511 54.128 119.691 56.912C124.872 59.6187 128.931 63.408 131.869 68.28C134.807 73.152 136.277 78.6813 136.277 84.868C136.277 91.0547 134.807 96.584 131.869 101.456C128.931 106.328 124.872 110.156 119.691 112.94C114.511 115.647 108.634 117 102.062 117ZM102.062 102.152C106.701 102.152 110.49 100.605 113.428 97.512C116.444 94.3413 117.951 90.1267 117.951 84.868C117.951 79.6093 116.444 75.4333 113.428 72.34C110.49 69.1693 106.701 67.584 102.062 67.584C97.4227 67.584 93.5953 69.1693 90.5798 72.34C87.5643 75.4333 86.0565 79.6093 86.0565 84.868C86.0565 90.1267 87.5643 94.3413 90.5798 97.512C93.5953 100.605 97.4227 102.152 102.062 102.152Z" fill="#FDFDFD"/>
<path d="M211.928 30V116.072H194.647V108.88C190.162 114.293 183.667 117 175.162 117C169.286 117 163.951 115.685 159.157 113.056C154.44 110.427 150.729 106.676 148.022 101.804C145.316 96.932 143.963 91.2867 143.963 84.868C143.963 78.4493 145.316 72.804 148.022 67.932C150.729 63.06 154.44 59.3093 159.157 56.68C163.951 54.0507 169.286 52.736 175.162 52.736C183.126 52.736 189.351 55.2493 193.835 60.276V30H211.928ZM178.294 102.152C182.856 102.152 186.644 100.605 189.66 97.512C192.675 94.3413 194.183 90.1267 194.183 84.868C194.183 79.6093 192.675 75.4333 189.66 72.34C186.644 69.1693 182.856 67.584 178.294 67.584C173.654 67.584 169.827 69.1693 166.811 72.34C163.796 75.4333 162.288 79.6093 162.288 84.868C162.288 90.1267 163.796 94.3413 166.811 97.512C169.827 100.605 173.654 102.152 178.294 102.152Z" fill="#FDFDFD"/>
<path d="M292 53.664V116.072H274.719V108.88C270.234 114.293 263.739 117 255.234 117C249.357 117 244.022 115.685 239.228 113.056C234.512 110.427 230.8 106.676 228.094 101.804C225.388 96.932 224.035 91.2867 224.035 84.868C224.035 78.4493 225.388 72.804 228.094 67.932C230.8 63.06 234.512 59.3093 239.228 56.68C244.022 54.0507 249.357 52.736 255.234 52.736C263.198 52.736 269.422 55.2493 273.907 60.276V53.664H292ZM258.365 102.152C262.927 102.152 266.716 100.605 269.732 97.512C272.747 94.3413 274.255 90.1267 274.255 84.868C274.255 79.6093 272.747 75.4333 269.732 72.34C266.716 69.1693 262.927 67.584 258.365 67.584C253.726 67.584 249.899 69.1693 246.883 72.34C243.868 75.4333 242.36 79.6093 242.36 84.868C242.36 90.1267 243.868 94.3413 246.883 97.512C249.899 100.605 253.726 102.152 258.365 102.152Z" fill="#FDFDFD"/>
</svg>
